<svg xmlns="http://www.w3.org/2000/svg" viewBox="0 0 1200 900" role="img" aria-label="Elimu ERP university management login screen">
  <defs>
    <linearGradient id="bg" x1="0" x2="1" y1="0" y2="1">
      <stop offset="0%" stop-color="#101826"/>
      <stop offset="100%" stop-color="#0b1220"/>
    </linearGradient>
    <linearGradient id="btn" x1="0" x2="1" y1="0" y2="1">
      <stop offset="0%" stop-color="#0cc7a6"/>
      <stop offset="100%" stop-color="#0aa88f"/>
    </linearGradient>
  </defs>
  <rect width="1200" height="900" fill="url(#bg)"/>
  <rect x="220" y="104" width="760" height="692" rx="36" fill="#ffffff"/>

  <rect x="292" y="190" width="64" height="64" rx="16" fill="#10bfa3"/>
  <path d="M318 216l16-10 16 10-16 10-16-10zm2 7v14h28v-14l-14 9-14-9z" fill="#0f172a"/>
  <text x="378" y="219" font-family="Arial, sans-serif" font-size="52" font-weight="800" fill="#0f172a">Elimu ERP</text>
  <text x="380" y="252" font-family="Arial, sans-serif" font-size="23" letter-spacing="4" fill="#8a94a7">UNIVERSITY MANAGEMENT</text>

  <text x="292" y="353" font-family="Arial, sans-serif" font-size="48" font-weight="800" fill="#0f172a">Welcome back</text>
  <text x="292" y="400" font-family="Arial, sans-serif" font-size="26" fill="#98a3b5">Who are you signing in as?</text>

  <rect x="292" y="454" width="160" height="120" rx="18" fill="#e7fbf7" stroke="#10bfa3" stroke-width="5"/>
  <text x="340" y="500" font-family="Arial, sans-serif" font-size="40">👑</text>
  <text x="334" y="542" font-family="Arial, sans-serif" font-size="30" font-weight="700" fill="#374151" text-anchor="middle">Admin</text>

  <rect x="474" y="454" width="160" height="120" rx="18" fill="#ffffff" stroke="#d8dee8" stroke-width="5"/>
  <text x="530" y="500" font-family="Arial, sans-serif" font-size="34">🏛️</text>
  <text x="554" y="542" font-family="Arial, sans-serif" font-size="30" font-weight="700" fill="#374151" text-anchor="middle">Management</text>

  <rect x="656" y="454" width="160" height="120" rx="18" fill="#ffffff" stroke="#d8dee8" stroke-width="5"/>
  <text x="712" y="500" font-family="Arial, sans-serif" font-size="34">💰</text>
  <text x="736" y="542" font-family="Arial, sans-serif" font-size="30" font-weight="700" fill="#374151" text-anchor="middle">Finance</text>

  <rect x="292" y="648" width="524" height="72" rx="20" fill="url(#btn)"/>
  <text x="554" y="694" font-family="Arial, sans-serif" font-size="32" font-weight="800" fill="#ffffff" text-anchor="middle">Continue →</text>
</svg>
